<?xml version="1.0" encoding="UTF-8"?>
<!-- Generator: Adobe Illustrator 15.0.2, SVG Export Plug-In . SVG Version: 6.00 Build 0)  -->
<!DOCTYPE svg PUBLIC "-//W3C//DTD SVG 1.1//EN" "http://www.w3.org/Graphics/SVG/1.1/DTD/svg11.dtd">
<svg xmlns="http://www.w3.org/2000/svg" xmlns:xlink="http://www.w3.org/1999/xlink" version="1.1" id="Layer_1" x="0px" y="0px" width="512px" height="568.889px" viewBox="0 0 512 568.889" enable-background="new 0 0 512 568.889" xml:space="preserve">
<path d="M455.111,56.889H336.069C324.417,23.896,293.111,0,256,0c-37.118,0-68.41,23.896-80.069,56.889H56.889  C25.458,56.889,0,82.348,0,113.777V512c0,31.431,25.458,56.889,56.889,56.889h398.223C486.542,568.889,512,543.431,512,512V113.777  C512,82.348,486.542,56.889,455.111,56.889z M256,56.889c15.639,0,28.444,12.66,28.444,28.444c0,15.785-12.806,28.444-28.444,28.444  c-15.646,0-28.444-12.659-28.444-28.444C227.556,69.549,240.354,56.889,256,56.889z M312.889,455.111H113.777v-56.889h199.111  V455.111z M398.223,341.333H113.777v-56.889h284.445V341.333z M398.223,227.556H113.777v-56.889h284.445V227.556z" fill="#8B0000"/>
</svg>
